solid OpenSCAD_Model
  facet normal -1 0 0
    outer loop
      vertex -70 -12 -1
      vertex -70 12 1
      vertex -70 12 -1
    endloop
  endfacet
  facet normal -1 -0 0
    outer loop
      vertex -70 12 1
      vertex -70 -12 -1
      vertex -70 -12 1
    endloop
  endfacet
  facet normal -0 0 1
    outer loop
      vertex -70 12 1
      vertex -62 -12 1
      vertex -62 12 1
    endloop
  endfacet
  facet normal 0 0 1
    outer loop
      vertex -62 -12 1
      vertex -70 12 1
      vertex -70 -12 1
    endloop
  endfacet
  facet normal 0 0 1
    outer loop
      vertex 3 -9 1
      vertex 62 12 1
      vertex 62 14.95 1
    endloop
  endfacet
  facet normal 0 0 1
    outer loop
      vertex 62 12 1
      vertex 3 -9 1
      vertex 62 -12 1
    endloop
  endfacet
  facet normal 0 0 1
    outer loop
      vertex 3 -14.95 1
      vertex 62 -12 1
      vertex 3 -9 1
    endloop
  endfacet
  facet normal 0 0 1
    outer loop
      vertex 62 14.95 1
      vertex -3 -9 1
      vertex 3 -9 1
    endloop
  endfacet
  facet normal -0 0 1
    outer loop
      vertex -62 14.95 1
      vertex -3 -9 1
      vertex 62 14.95 1
    endloop
  endfacet
  facet normal -0 0 1
    outer loop
      vertex -62 12 1
      vertex -3 -9 1
      vertex -62 14.95 1
    endloop
  endfacet
  facet normal 0 0 1
    outer loop
      vertex -62 -12 1
      vertex -3 -9 1
      vertex -62 12 1
    endloop
  endfacet
  facet normal 0 0 1
    outer loop
      vertex -3 -9 1
      vertex -62 -12 1
      vertex -3 -14.95 1
    endloop
  endfacet
  facet normal 0 0 1
    outer loop
      vertex -3 -14.95 1
      vertex -62 -12 1
      vertex -62 -14.95 1
    endloop
  endfacet
  facet normal -0 0 1
    outer loop
      vertex 62 12 1
      vertex 70 -12 1
      vertex 70 12 1
    endloop
  endfacet
  facet normal 0 0 1
    outer loop
      vertex 70 -12 1
      vertex 62 12 1
      vertex 62 -12 1
    endloop
  endfacet
  facet normal 0 0 1
    outer loop
      vertex 62 -12 1
      vertex 3 -14.95 1
      vertex 62 -14.95 1
    endloop
  endfacet
  facet normal 1 -0 0
    outer loop
      vertex 70 -12 1
      vertex 70 12 -1
      vertex 70 12 1
    endloop
  endfacet
  facet normal 1 0 0
    outer loop
      vertex 70 12 -1
      vertex 70 -12 1
      vertex 70 -12 -1
    endloop
  endfacet
  facet normal 0 0 -1
    outer loop
      vertex -62 -12 -1
      vertex -3 -14.95 -1
      vertex -62 -14.95 -1
    endloop
  endfacet
  facet normal 0 0 -1
    outer loop
      vertex 3 -14.95 -1
      vertex 62 -12 -1
      vertex 62 -14.95 -1
    endloop
  endfacet
  facet normal 0 0 -1
    outer loop
      vertex 62 -12 -1
      vertex 3 -9 -1
      vertex 62 12 -1
    endloop
  endfacet
  facet normal -0 0 -1
    outer loop
      vertex 62 -12 -1
      vertex 3 -14.95 -1
      vertex 3 -9 -1
    endloop
  endfacet
  facet normal -0 0 -1
    outer loop
      vertex 62 12 -1
      vertex 3 -9 -1
      vertex 62 14.95 -1
    endloop
  endfacet
  facet normal 0 0 -1
    outer loop
      vertex -3 -9 -1
      vertex 62 14.95 -1
      vertex 3 -9 -1
    endloop
  endfacet
  facet normal 0 0 -1
    outer loop
      vertex -3 -14.95 -1
      vertex -62 -12 -1
      vertex -3 -9 -1
    endloop
  endfacet
  facet normal 0 0 -1
    outer loop
      vertex -62 12 -1
      vertex -3 -9 -1
      vertex -62 -12 -1
    endloop
  endfacet
  facet normal 0 0 -1
    outer loop
      vertex -62 14.95 -1
      vertex -3 -9 -1
      vertex -62 12 -1
    endloop
  endfacet
  facet normal 0 0 -1
    outer loop
      vertex -3 -9 -1
      vertex -62 14.95 -1
      vertex 62 14.95 -1
    endloop
  endfacet
  facet normal 0 0 -1
    outer loop
      vertex 62 -12 -1
      vertex 70 12 -1
      vertex 70 -12 -1
    endloop
  endfacet
  facet normal -0 0 -1
    outer loop
      vertex 70 12 -1
      vertex 62 -12 -1
      vertex 62 12 -1
    endloop
  endfacet
  facet normal 0 0 -1
    outer loop
      vertex -70 -12 -1
      vertex -62 12 -1
      vertex -62 -12 -1
    endloop
  endfacet
  facet normal -0 0 -1
    outer loop
      vertex -62 12 -1
      vertex -70 -12 -1
      vertex -70 12 -1
    endloop
  endfacet
  facet normal 0 -1 0
    outer loop
      vertex 3 -14.95 -1
      vertex 62 -14.95 1
      vertex 3 -14.95 1
    endloop
  endfacet
  facet normal 0 -1 -0
    outer loop
      vertex 62 -14.95 1
      vertex 3 -14.95 -1
      vertex 62 -14.95 -1
    endloop
  endfacet
  facet normal 0 -1 0
    outer loop
      vertex -62 -14.95 -1
      vertex -3 -14.95 1
      vertex -62 -14.95 1
    endloop
  endfacet
  facet normal 0 -1 -0
    outer loop
      vertex -3 -14.95 1
      vertex -62 -14.95 -1
      vertex -3 -14.95 -1
    endloop
  endfacet
  facet normal 0 1 -0
    outer loop
      vertex 62 14.95 -1
      vertex -62 14.95 1
      vertex 62 14.95 1
    endloop
  endfacet
  facet normal 0 1 0
    outer loop
      vertex -62 14.95 1
      vertex 62 14.95 -1
      vertex -62 14.95 -1
    endloop
  endfacet
  facet normal 1 -0 0
    outer loop
      vertex 62 12 1
      vertex 62 14.95 -1
      vertex 62 14.95 1
    endloop
  endfacet
  facet normal 1 0 0
    outer loop
      vertex 62 14.95 -1
      vertex 62 12 1
      vertex 62 12 -1
    endloop
  endfacet
  facet normal 0 1 -0
    outer loop
      vertex 70 12 -1
      vertex 62 12 1
      vertex 70 12 1
    endloop
  endfacet
  facet normal 0 1 0
    outer loop
      vertex 62 12 1
      vertex 70 12 -1
      vertex 62 12 -1
    endloop
  endfacet
  facet normal 1 -0 0
    outer loop
      vertex 62 -14.95 1
      vertex 62 -12 -1
      vertex 62 -12 1
    endloop
  endfacet
  facet normal 1 0 0
    outer loop
      vertex 62 -12 -1
      vertex 62 -14.95 1
      vertex 62 -14.95 -1
    endloop
  endfacet
  facet normal 0 -1 0
    outer loop
      vertex 62 -12 -1
      vertex 70 -12 1
      vertex 62 -12 1
    endloop
  endfacet
  facet normal 0 -1 -0
    outer loop
      vertex 70 -12 1
      vertex 62 -12 -1
      vertex 70 -12 -1
    endloop
  endfacet
  facet normal -1 0 0
    outer loop
      vertex -62 12 -1
      vertex -62 14.95 1
      vertex -62 14.95 -1
    endloop
  endfacet
  facet normal -1 -0 0
    outer loop
      vertex -62 14.95 1
      vertex -62 12 -1
      vertex -62 12 1
    endloop
  endfacet
  facet normal 0 1 -0
    outer loop
      vertex -62 12 -1
      vertex -70 12 1
      vertex -62 12 1
    endloop
  endfacet
  facet normal 0 1 0
    outer loop
      vertex -70 12 1
      vertex -62 12 -1
      vertex -70 12 -1
    endloop
  endfacet
  facet normal -1 0 0
    outer loop
      vertex -62 -14.95 -1
      vertex -62 -12 1
      vertex -62 -12 -1
    endloop
  endfacet
  facet normal -1 -0 0
    outer loop
      vertex -62 -12 1
      vertex -62 -14.95 -1
      vertex -62 -14.95 1
    endloop
  endfacet
  facet normal 0 -1 0
    outer loop
      vertex -70 -12 -1
      vertex -62 -12 1
      vertex -70 -12 1
    endloop
  endfacet
  facet normal 0 -1 -0
    outer loop
      vertex -62 -12 1
      vertex -70 -12 -1
      vertex -62 -12 -1
    endloop
  endfacet
  facet normal 1 -0 0
    outer loop
      vertex -3 -14.95 1
      vertex -3 -9 -1
      vertex -3 -9 1
    endloop
  endfacet
  facet normal 1 0 0
    outer loop
      vertex -3 -9 -1
      vertex -3 -14.95 1
      vertex -3 -14.95 -1
    endloop
  endfacet
  facet normal -1 0 0
    outer loop
      vertex 3 -14.95 -1
      vertex 3 -9 1
      vertex 3 -9 -1
    endloop
  endfacet
  facet normal -1 -0 0
    outer loop
      vertex 3 -9 1
      vertex 3 -14.95 -1
      vertex 3 -14.95 1
    endloop
  endfacet
  facet normal 0 -1 0
    outer loop
      vertex -3 -9 -1
      vertex 3 -9 1
      vertex -3 -9 1
    endloop
  endfacet
  facet normal 0 -1 -0
    outer loop
      vertex 3 -9 1
      vertex -3 -9 -1
      vertex 3 -9 -1
    endloop
  endfacet
endsolid OpenSCAD_Model
